<svg width="14" height="14" viewBox="0 0 14 14" fill="none" xmlns="http://www.w3.org/2000/svg">
<path fill-rule="evenodd" clip-rule="evenodd" d="M3.70516 5.10534C3.83643 4.97411 4.01444 4.90039 4.20006 4.90039C4.38567 4.90039 4.56369 4.97411 4.69496 5.10534L7.00006 7.41044L9.30516 5.10534C9.43718 4.97783 9.614 4.90727 9.79754 4.90887C9.98108 4.91046 10.1566 4.98408 10.2864 5.11387C10.4162 5.24365 10.4898 5.41922 10.4914 5.60276C10.493 5.7863 10.4225 5.96312 10.295 6.09514L7.49496 8.89514C7.36369 9.02637 7.18567 9.10009 7.00006 9.10009C6.81444 9.10009 6.63643 9.02637 6.50516 8.89514L3.70516 6.09514C3.57393 5.96387 3.50021 5.78586 3.50021 5.60024C3.50021 5.41463 3.57393 5.23661 3.70516 5.10534Z" fill="#9CA3AF"/>
</svg>
