<svg width="411" height="235" viewBox="0 0 411 235" fill="none" xmlns="http://www.w3.org/2000/svg"><path d="M36.595 17.5H47.125V63H36.595V17.5ZM15.925 63H5.395V17.5H15.925V63ZM37.375 44.345H15.145V35.44H37.375V44.345ZM57.8901 63V17.5H68.4201V63H57.8901ZM101.188 63.78C97.5916 63.78 94.2766 63.2167 91.2432 62.09C88.2532 60.92 85.6316 59.2733 83.3782 57.15C81.1682 55.0267 79.4349 52.535 78.1782 49.675C76.9649 46.815 76.3582 43.6733 76.3582 40.25C76.3582 36.8267 76.9649 33.685 78.1782 30.825C79.4349 27.965 81.1899 25.4733 83.4432 23.35C85.6966 21.2267 88.3399 19.6017 91.3732 18.475C94.4066 17.305 97.7432 16.72 101.383 16.72C105.413 16.72 109.032 17.3917 112.238 18.735C115.488 20.0783 118.218 22.0283 120.428 24.585L113.668 30.825C112.022 29.0917 110.223 27.8133 108.273 26.99C106.323 26.1233 104.2 25.69 101.903 25.69C99.6932 25.69 97.6782 26.0367 95.8582 26.73C94.0382 27.4233 92.4566 28.42 91.1132 29.72C89.8132 31.02 88.7949 32.5583 88.0582 34.335C87.3649 36.1117 87.0182 38.0833 87.0182 40.25C87.0182 42.3733 87.3649 44.3233 88.0582 46.1C88.7949 47.8767 89.8132 49.4367 91.1132 50.78C92.4566 52.08 94.0166 53.0767 95.7932 53.77C97.6132 54.4633 99.6066 54.81 101.773 54.81C103.853 54.81 105.868 54.485 107.818 53.835C109.812 53.1417 111.74 51.9933 113.603 50.39L119.583 57.995C117.113 59.8583 114.232 61.2883 110.938 62.285C107.688 63.2817 104.438 63.78 101.188 63.78ZM109.963 56.63V39.535H119.583V57.995L109.963 56.63ZM160.565 17.5H171.095V63H160.565V17.5ZM139.895 63H129.365V17.5H139.895V63ZM161.345 44.345H139.115V35.44H161.345V44.345ZM200.268 63V17.5H210.798V54.42H233.613V63H200.268ZM249.182 35.83H271.087V44.02H249.182V35.83ZM249.962 54.55H274.727V63H239.497V17.5H273.882V25.95H249.962V54.55ZM296.12 63L276.49 17.5H287.865L305.025 57.8H298.33L315.75 17.5H326.215L306.52 63H296.12ZM339.699 35.83H361.604V44.02H339.699V35.83ZM340.479 54.55H365.244V63H330.014V17.5H364.399V25.95H340.479V54.55ZM373.623 63V17.5H384.153V54.42H406.968V63H373.623Z" fill="#353535"/><path d="M38.0321 206.499C31.5854 206.499 25.4074 205.655 19.498 203.967C13.5886 202.202 8.83036 199.938 5.22331 197.175L11.5548 183.13C15.0084 185.586 19.0759 187.62 23.7574 189.232C28.5156 190.766 33.3122 191.534 38.1472 191.534C41.831 191.534 44.7857 191.189 47.0113 190.498C49.3137 189.73 51.0021 188.694 52.0765 187.39C53.1509 186.085 53.6882 184.588 53.6882 182.9C53.6882 180.751 52.8439 179.063 51.1555 177.835C49.4671 176.53 47.2415 175.494 44.4787 174.727C41.7158 173.882 38.646 173.115 35.2692 172.424C31.9691 171.657 28.6307 170.736 25.2539 169.661C21.9539 168.587 18.9224 167.206 16.1596 165.517C13.3967 163.829 11.1327 161.603 9.36758 158.84C7.67917 156.077 6.83497 152.547 6.83497 148.249C6.83497 143.645 8.0629 139.462 10.5188 135.702C13.0514 131.864 16.8119 128.833 21.8004 126.607C26.8656 124.305 33.1971 123.154 40.7949 123.154C45.8601 123.154 50.8486 123.768 55.7603 124.995C60.672 126.147 65.0081 127.912 68.7687 130.291L63.0127 144.451C59.2522 142.302 55.4917 140.728 51.7311 139.731C47.9706 138.656 44.2868 138.119 40.6798 138.119C37.0727 138.119 34.118 138.541 31.8157 139.385C29.5133 140.229 27.8633 141.342 26.8656 142.724C25.8679 144.028 25.369 145.563 25.369 147.328C25.369 149.401 26.2132 151.089 27.9016 152.394C29.59 153.622 31.8157 154.619 34.5785 155.387C37.3413 156.154 40.3728 156.922 43.6729 157.689C47.0497 158.457 50.3881 159.339 53.6882 160.337C57.065 161.335 60.1348 162.678 62.8976 164.366C65.6605 166.054 67.8861 168.28 69.5745 171.043C71.3396 173.806 72.2222 177.298 72.2222 181.519C72.2222 186.047 70.9559 190.191 68.4233 193.951C65.8907 197.712 62.0918 200.743 57.0266 203.046C52.0381 205.348 45.7066 206.499 38.0321 206.499ZM101.657 186.699L100.621 165.172L139.186 124.535H159.907L125.142 161.948L114.781 173L101.657 186.699ZM84.9653 205.118V124.535H103.499V205.118H84.9653ZM140.107 205.118L111.442 170.007L123.645 156.768L161.864 205.118H140.107ZM170.18 205.118V124.535H188.829V205.118H170.18ZM207.953 205.118V124.535H226.602V189.922H267.009V205.118H207.953ZM277.429 205.118V124.535H296.078V189.922H336.485V205.118H277.429ZM372.932 206.499C366.485 206.499 360.307 205.655 354.398 203.967C348.489 202.202 343.73 199.938 340.123 197.175L346.455 183.13C349.908 185.586 353.976 187.62 358.657 189.232C363.416 190.766 368.212 191.534 373.047 191.534C376.731 191.534 379.686 191.189 381.911 190.498C384.214 189.73 385.902 188.694 386.977 187.39C388.051 186.085 388.588 184.588 388.588 182.9C388.588 180.751 387.744 179.063 386.056 177.835C384.367 176.53 382.142 175.494 379.379 174.727C376.616 173.882 373.546 173.115 370.169 172.424C366.869 171.657 363.531 170.736 360.154 169.661C356.854 168.587 353.822 167.206 351.06 165.517C348.297 163.829 346.033 161.603 344.268 158.84C342.579 156.077 341.735 152.547 341.735 148.249C341.735 143.645 342.963 139.462 345.419 135.702C347.951 131.864 351.712 128.833 356.7 126.607C361.766 124.305 368.097 123.154 375.695 123.154C380.76 123.154 385.749 123.768 390.66 124.995C395.572 126.147 399.908 127.912 403.669 130.291L397.913 144.451C394.152 142.302 390.392 140.728 386.631 139.731C382.871 138.656 379.187 138.119 375.58 138.119C371.973 138.119 369.018 138.541 366.716 139.385C364.413 140.229 362.763 141.342 361.766 142.724C360.768 144.028 360.269 145.563 360.269 147.328C360.269 149.401 361.113 151.089 362.802 152.394C364.49 153.622 366.716 154.619 369.479 155.387C372.241 156.154 375.273 156.922 378.573 157.689C381.95 158.457 385.288 159.339 388.588 160.337C391.965 161.335 395.035 162.678 397.798 164.366C400.56 166.054 402.786 168.28 404.475 171.043C406.24 173.806 407.122 177.298 407.122 181.519C407.122 186.047 405.856 190.191 403.323 193.951C400.791 197.712 396.992 200.743 391.927 203.046C386.938 205.348 380.607 206.499 372.932 206.499Z" fill="#F1B23E"/><path fill="#F1B23E" d="M5.399 91H407.015V97.538H5.399z"/></svg>