<svg width="119" height="58" viewBox="0 0 119 58" fill="none" xmlns="http://www.w3.org/2000/svg"><path d="M9.73341 57.7292C7.80969 57.7292 6.08697 57.5282 4.56523 57.1262C3.0722 56.7243 1.90936 56.2218 1.0767 55.6188C0.358901 55.0733 0 54.5852 0 54.1545C0 53.609 0.287121 52.9343 0.861363 52.1303C1.43561 51.2977 1.90936 50.8813 2.28261 50.8813C2.45489 50.8813 2.81379 51.0393 3.35932 51.3551C4.24939 51.8145 5.12511 52.1877 5.98648 52.4749C6.84784 52.762 7.85276 52.9056 9.00125 52.9056C10.2933 52.9056 11.37 52.6041 12.2314 52.0011C13.1214 51.3695 13.5665 50.4363 13.5665 49.2017C13.5665 48.4265 13.3368 47.7804 12.8774 47.2636C12.4467 46.7181 11.9012 46.2731 11.2408 45.9285C10.5804 45.5552 9.66163 45.1246 8.48443 44.6365L6.97704 43.9904C5.65629 43.4162 4.55087 42.8132 3.66079 42.1816C2.77072 41.5212 2.03856 40.6455 1.46432 39.5544C0.890076 38.4634 0.602954 37.0852 0.602954 35.4199C0.602954 33.611 1.04799 32.0749 1.93807 30.8116C2.85686 29.5195 4.07712 28.5577 5.59886 27.926C7.1206 27.2943 8.78591 26.9785 10.5948 26.9785C11.8868 26.9785 13.1358 27.1221 14.3417 27.4092C15.5476 27.6963 16.4808 28.0839 17.1411 28.572C17.7441 29.0027 18.0456 29.4334 18.0456 29.8641C18.0456 30.3809 17.8015 31.0556 17.3134 31.8883C16.8253 32.6922 16.3946 33.0942 16.0214 33.0942C15.8778 33.0942 15.6481 33.0224 15.3323 32.8789C15.0164 32.7353 14.7724 32.6204 14.6001 32.5343C13.4516 32.0462 12.2314 31.8021 10.9393 31.8021C9.38886 31.8021 8.24038 32.118 7.49386 32.7496C6.77606 33.3526 6.41716 34.1278 6.41716 35.0753C6.41716 35.908 6.6325 36.5971 7.06318 37.1426C7.49386 37.6594 8.02504 38.0757 8.6567 38.3916C9.28837 38.7074 10.2215 39.1094 11.4561 39.5975C13.0927 40.2579 14.4422 40.9039 15.5045 41.5356C16.5669 42.1672 17.4713 43.0717 18.2178 44.2488C18.9931 45.3973 19.3807 46.876 19.3807 48.6849C19.3807 51.6996 18.4619 53.9679 16.6243 55.4896C14.7867 56.9827 12.4898 57.7292 9.73341 57.7292Z" fill="#FAB706"/><path d="M26.0562 57.5138C24.5345 57.5138 23.7736 57.0975 23.7736 56.2649V28.4428C23.7736 27.6102 24.5345 27.1939 26.0562 27.1939H27.1329C28.6834 27.1939 29.4586 27.6102 29.4586 28.4428V40.545H29.6309L38.1584 27.926C38.5029 27.4379 39.3356 27.1939 40.6563 27.1939H42.1637C42.8528 27.1939 43.3696 27.2513 43.7142 27.3661C44.0587 27.481 44.231 27.6245 44.231 27.7968C44.231 28.0552 44.1162 28.3567 43.8865 28.7012L34.7129 41.6648L45.3938 56.0495C45.6235 56.3941 45.7384 56.6668 45.7384 56.8678C45.7384 57.2985 44.9919 57.5138 43.4988 57.5138H41.69C40.3405 57.5138 39.4935 57.2698 39.149 56.7817L29.6309 43.4306H29.4586V56.2649C29.4586 57.0975 28.6834 57.5138 27.1329 57.5138H26.0562Z" fill="#FAB706"/><path d="M50.7417 57.5569C49.1912 57.5569 48.416 57.1262 48.416 56.2649V28.4428C48.416 27.5815 49.1912 27.1508 50.7417 27.1508H51.8184C53.3402 27.1508 54.101 27.5815 54.101 28.4428V56.2649C54.101 57.1262 53.3402 57.5569 51.8184 57.5569H50.7417Z" fill="#FAB706"/><path d="M62.5511 57.4277C62.0056 57.4277 61.6036 57.2985 61.3452 57.0401C61.0868 56.7817 60.9576 56.3797 60.9576 55.8342V28.4428C60.9576 27.6102 61.7185 27.1939 63.2402 27.1939H64.3169C65.1209 27.1939 65.6951 27.2943 66.0396 27.4953C66.4129 27.6963 66.5995 28.0122 66.5995 28.4428V52.6041H76.8067C77.2087 52.6041 77.4958 52.762 77.6681 53.0778C77.8403 53.3649 77.9265 53.8243 77.9265 54.456V55.5758C77.9265 56.2074 77.8403 56.6812 77.6681 56.997C77.4958 57.2841 77.2087 57.4277 76.8067 57.4277H62.5511Z" fill="#FAB706"/><path d="M82.5711 57.4277C82.0256 57.4277 81.6236 57.2985 81.3652 57.0401C81.1068 56.7817 80.9776 56.3797 80.9776 55.8342V28.4428C80.9776 27.6102 81.7384 27.1939 83.2602 27.1939H84.3369C85.1408 27.1939 85.7151 27.2943 86.0596 27.4953C86.4329 27.6963 86.6195 28.0122 86.6195 28.4428V52.6041H96.8267C97.2286 52.6041 97.5157 52.762 97.688 53.0778C97.8603 53.3649 97.9464 53.8243 97.9464 54.456V55.5758C97.9464 56.2074 97.8603 56.6812 97.688 56.997C97.5157 57.2841 97.2286 57.4277 96.8267 57.4277H82.5711Z" fill="#FAB706"/><path d="M109.16 57.7292C107.237 57.7292 105.514 57.5282 103.992 57.1262C102.499 56.7243 101.336 56.2218 100.504 55.6188C99.7858 55.0733 99.4269 54.5852 99.4269 54.1545C99.4269 53.609 99.714 52.9343 100.288 52.1303C100.863 51.2977 101.336 50.8813 101.71 50.8813C101.882 50.8813 102.241 51.0393 102.786 51.3551C103.676 51.8145 104.552 52.1877 105.413 52.4749C106.275 52.762 107.28 52.9056 108.428 52.9056C109.72 52.9056 110.797 52.6041 111.658 52.0011C112.548 51.3695 112.993 50.4363 112.993 49.2017C112.993 48.4265 112.764 47.7804 112.304 47.2636C111.874 46.7181 111.328 46.2731 110.668 45.9285C110.007 45.5552 109.089 45.1246 107.911 44.6365L106.404 43.9904C105.083 43.4162 103.978 42.8132 103.088 42.1816C102.198 41.5212 101.465 40.6455 100.891 39.5544C100.317 38.4634 100.03 37.0852 100.03 35.4199C100.03 33.611 100.475 32.0749 101.365 30.8116C102.284 29.5195 103.504 28.5577 105.026 27.926C106.548 27.2943 108.213 26.9785 110.022 26.9785C111.314 26.9785 112.563 27.1221 113.769 27.4092C114.975 27.6963 115.908 28.0839 116.568 28.572C117.171 29.0027 117.472 29.4334 117.472 29.8641C117.472 30.3809 117.228 31.0556 116.74 31.8883C116.252 32.6922 115.822 33.0942 115.448 33.0942C115.305 33.0942 115.075 33.0224 114.759 32.8789C114.443 32.7353 114.199 32.6204 114.027 32.5343C112.879 32.0462 111.658 31.8021 110.366 31.8021C108.816 31.8021 107.667 32.118 106.921 32.7496C106.203 33.3526 105.844 34.1278 105.844 35.0753C105.844 35.908 106.059 36.5971 106.49 37.1426C106.921 37.6594 107.452 38.0757 108.084 38.3916C108.715 38.7074 109.648 39.1094 110.883 39.5975C112.52 40.2579 113.869 40.9039 114.931 41.5356C115.994 42.1672 116.898 43.0717 117.645 44.2488C118.42 45.3973 118.808 46.876 118.808 48.6849C118.808 51.6996 117.889 53.9679 116.051 55.4896C114.214 56.9827 111.917 57.7292 109.16 57.7292Z" fill="#FAB706"/><path d="M1.20617 16.1354C0.402057 16.1354 0 15.9154 0 15.4754V0.77377C0 0.333783 0.402057 0.11379 1.20617 0.11379H1.79788C2.60199 0.11379 3.00405 0.333783 3.00405 0.77377V6.66809H9.87696V0.77377C9.87696 0.333783 10.279 0.11379 11.0831 0.11379H11.6748C12.479 0.11379 12.881 0.333783 12.881 0.77377V15.4754C12.881 15.9154 12.479 16.1354 11.6748 16.1354H11.0831C10.279 16.1354 9.87696 15.9154 9.87696 15.4754V9.23973H3.00405V15.4754C3.00405 15.9154 2.60199 16.1354 1.79788 16.1354H1.20617Z" fill="#212A34"/><path d="M17.7148 16.1582C16.8955 16.1582 16.4858 15.9306 16.4858 15.4754V0.77377C16.4858 0.318611 16.8955 0.0910322 17.7148 0.0910322H18.2837C19.0878 0.0910322 19.4899 0.318611 19.4899 0.77377V15.4754C19.4899 15.9306 19.0878 16.1582 18.2837 16.1582H17.7148Z" fill="#212A34"/><path d="M34.0596 7.46461C34.3479 7.46461 34.5603 7.53289 34.6968 7.66944C34.8334 7.79081 34.9017 7.99563 34.9017 8.2839V14.5196C34.9017 15.172 34.3631 15.6271 33.2858 15.8851C32.2086 16.1278 31.0025 16.2492 29.6673 16.2492C27.2095 16.2492 25.3737 15.5892 24.1599 14.2692C22.9461 12.9493 22.3393 10.9087 22.3393 8.14735C22.3393 2.71578 24.8502 0 29.8721 0C30.5701 0 31.2831 0.0682739 32.0114 0.204822C32.7548 0.34137 33.3617 0.531019 33.832 0.77377C34.3175 1.00135 34.5603 1.25169 34.5603 1.52478C34.5603 1.70685 34.4844 1.9496 34.3327 2.25304C34.1962 2.54131 34.0293 2.79923 33.832 3.02681C33.6348 3.25439 33.4603 3.36818 33.3086 3.36818C33.2631 3.36818 33.0734 3.29232 32.7397 3.1406C32.421 2.98888 32.0114 2.85233 31.5107 2.73096C31.0252 2.60958 30.4639 2.54889 29.8266 2.54889C28.2943 2.54889 27.1715 3.01164 26.4585 3.93713C25.7605 4.86262 25.4116 6.24327 25.4116 8.07908C25.4116 11.8266 26.8453 13.7003 29.7128 13.7003C30.4866 13.7003 31.2149 13.632 31.8976 13.4955V10.0135H29.6673C29.4549 10.0135 29.2956 9.93765 29.1894 9.78593C29.0984 9.63421 29.0529 9.38387 29.0529 9.03491V8.44321C29.0529 8.09425 29.0984 7.84391 29.1894 7.69219C29.2956 7.54047 29.4549 7.46461 29.6673 7.46461H34.0596Z" fill="#212A34"/><path d="M39.6325 16.1354C38.8284 16.1354 38.4263 15.9154 38.4263 15.4754V0.77377C38.4263 0.333783 38.8284 0.11379 39.6325 0.11379H40.2242C41.0283 0.11379 41.4304 0.333783 41.4304 0.77377V6.66809H48.3033V0.77377C48.3033 0.333783 48.7053 0.11379 49.5094 0.11379H50.1011C50.9053 0.11379 51.3073 0.333783 51.3073 0.77377V15.4754C51.3073 15.9154 50.9053 16.1354 50.1011 16.1354H49.5094C48.7053 16.1354 48.3033 15.9154 48.3033 15.4754V9.23973H41.4304V15.4754C41.4304 15.9154 41.0283 16.1354 40.2242 16.1354H39.6325Z" fill="#212A34"/><path d="M61.4035 16.0899C61.1152 16.0899 60.9028 16.0216 60.7663 15.8851C60.6297 15.7485 60.5614 15.5361 60.5614 15.2478V0.77377C60.5614 0.333783 60.9635 0.11379 61.7676 0.11379H62.3366C62.7614 0.11379 63.0648 0.166891 63.2469 0.273095C63.4441 0.379299 63.5427 0.546191 63.5427 0.77377V13.541H68.9364C69.1488 13.541 69.3005 13.6244 69.3915 13.7913C69.4826 13.9431 69.5281 14.1858 69.5281 14.5196V15.1113C69.5281 15.4451 69.4826 15.6954 69.3915 15.8623C69.3005 16.014 69.1488 16.0899 68.9364 16.0899H61.4035Z" fill="#212A34"/><path d="M72.0051 16.0899C71.7169 16.0899 71.5045 16.0216 71.3679 15.8851C71.2314 15.7485 71.1631 15.5361 71.1631 15.2478V1.00135C71.1631 0.697911 71.2314 0.485503 71.3679 0.364127C71.5045 0.227579 71.7169 0.159305 72.0051 0.159305H79.9704C80.1828 0.159305 80.3346 0.235165 80.4256 0.386885C80.5318 0.538605 80.5849 0.788943 80.5849 1.1379V1.7296C80.5849 2.07856 80.5318 2.3289 80.4256 2.48062C80.3346 2.63234 80.1828 2.7082 79.9704 2.7082H74.1444V6.66809H79.3332C79.5456 6.66809 79.6973 6.74395 79.7884 6.89567C79.8946 7.04738 79.9477 7.29772 79.9477 7.64668V8.23839C79.9477 8.58734 79.8946 8.83768 79.7884 8.9894C79.6973 9.14112 79.5456 9.21698 79.3332 9.21698H74.1444V13.541H79.9932C80.2056 13.541 80.3573 13.6169 80.4484 13.7686C80.5546 13.9203 80.6077 14.1706 80.6077 14.5196V15.1113C80.6077 15.4602 80.5546 15.7106 80.4484 15.8623C80.3573 16.014 80.2056 16.0899 79.9932 16.0899H72.0051Z" fill="#212A34"/><path d="M88.1838 16.1354C87.5314 16.1354 87.1521 15.9913 87.0459 15.703L82.0391 0.955835C81.9784 0.743427 81.9481 0.614465 81.9481 0.568948C81.9481 0.265509 82.3653 0.11379 83.1998 0.11379H83.7915C84.459 0.11379 84.8535 0.295853 84.9749 0.659981L88.1838 10.4232C88.472 11.3638 88.6465 12.0693 88.7072 12.5396H88.7755C88.8665 11.9631 89.0486 11.2576 89.3216 10.4232L92.5533 0.659981C92.6747 0.295853 93.0691 0.11379 93.7367 0.11379H94.2146C95.0339 0.11379 95.4435 0.265509 95.4435 0.568948C95.4435 0.65998 95.4208 0.788942 95.3753 0.955835L90.3685 15.703C90.2623 15.9913 89.8754 16.1354 89.2079 16.1354H88.1838Z" fill="#212A34"/><path d="M98.4746 16.0899C98.1864 16.0899 97.974 16.0216 97.8374 15.8851C97.7009 15.7485 97.6326 15.5361 97.6326 15.2478V1.00135C97.6326 0.697911 97.7009 0.485503 97.8374 0.364127C97.974 0.227579 98.1864 0.159305 98.4746 0.159305H106.44C106.652 0.159305 106.804 0.235165 106.895 0.386885C107.001 0.538605 107.054 0.788943 107.054 1.1379V1.7296C107.054 2.07856 107.001 2.3289 106.895 2.48062C106.804 2.63234 106.652 2.7082 106.44 2.7082H100.614V6.66809H105.803C106.015 6.66809 106.167 6.74395 106.258 6.89567C106.364 7.04738 106.417 7.29772 106.417 7.64668V8.23839C106.417 8.58734 106.364 8.83768 106.258 8.9894C106.167 9.14112 106.015 9.21698 105.803 9.21698H100.614V13.541H106.463C106.675 13.541 106.827 13.6169 106.918 13.7686C107.024 13.9203 107.077 14.1706 107.077 14.5196V15.1113C107.077 15.4602 107.024 15.7106 106.918 15.8623C106.827 16.014 106.675 16.0899 106.463 16.0899H98.4746Z" fill="#212A34"/><path d="M110.875 16.0899C110.587 16.0899 110.375 16.0216 110.238 15.8851C110.102 15.7485 110.033 15.5361 110.033 15.2478V0.77377C110.033 0.333783 110.435 0.11379 111.24 0.11379H111.808C112.233 0.11379 112.537 0.166891 112.719 0.273095C112.916 0.379299 113.015 0.546191 113.015 0.77377V13.541H118.408C118.621 13.541 118.772 13.6244 118.863 13.7913C118.954 13.9431 119 14.1858 119 14.5196V15.1113C119 15.4451 118.954 15.6954 118.863 15.8623C118.772 16.014 118.621 16.0899 118.408 16.0899H110.875Z" fill="#212A34"/></svg>