<svg width="33" height="34" viewBox="0 0 33 34" fill="none" xmlns="http://www.w3.org/2000/svg">
<path d="M5.7 8.7501C5.7 8.5114 5.79482 8.28248 5.9636 8.1137C6.13239 7.94492 6.36131 7.8501 6.6 7.8501H26.4C26.6387 7.8501 26.8676 7.94492 27.0364 8.1137C27.2052 8.28248 27.3 8.5114 27.3 8.7501C27.3 8.98879 27.2052 9.21771 27.0364 9.38649C26.8676 9.55528 26.6387 9.6501 26.4 9.6501H6.6C6.36131 9.6501 6.13239 9.55528 5.9636 9.38649C5.79482 9.21771 5.7 8.98879 5.7 8.7501ZM5.7 17.0001C5.7 16.7614 5.79482 16.5325 5.9636 16.3637C6.13239 16.1949 6.36131 16.1001 6.6 16.1001H26.4C26.6387 16.1001 26.8676 16.1949 27.0364 16.3637C27.2052 16.5325 27.3 16.7614 27.3 17.0001C27.3 17.2388 27.2052 17.4677 27.0364 17.6365C26.8676 17.8053 26.6387 17.9001 26.4 17.9001H6.6C6.36131 17.9001 6.13239 17.8053 5.9636 17.6365C5.79482 17.4677 5.7 17.2388 5.7 17.0001ZM5.7 25.2501C5.7 25.0114 5.79482 24.7825 5.9636 24.6137C6.13239 24.4449 6.36131 24.3501 6.6 24.3501H26.4C26.6387 24.3501 26.8676 24.4449 27.0364 24.6137C27.2052 24.7825 27.3 25.0114 27.3 25.2501C27.3 25.4888 27.2052 25.7177 27.0364 25.8865C26.8676 26.0553 26.6387 26.1501 26.4 26.1501H6.6C6.36131 26.1501 6.13239 26.0553 5.9636 25.8865C5.79482 25.7177 5.7 25.4888 5.7 25.2501Z" fill="#212A34" stroke="#212A34" stroke-width="1.5"/>
</svg>
