<svg width="101" height="50" viewBox="0 0 101 50" fill="none" xmlns="http://www.w3.org/2000/svg">
<path d="M1.01771 14.1455C0.339236 14.1455 0 13.9599 0 13.5886V1.18412C0 0.812879 0.339236 0.62726 1.01771 0.62726H1.51696C2.19543 0.62726 2.53467 0.812879 2.53467 1.18412V6.15745H8.33368V1.18412C8.33368 0.812879 8.67292 0.62726 9.35139 0.62726H9.85064C10.5291 0.62726 10.8684 0.812879 10.8684 1.18412V13.5886C10.8684 13.9599 10.5291 14.1455 9.85064 14.1455H9.35139C8.67292 14.1455 8.33368 13.9599 8.33368 13.5886V8.32728H2.53467V13.5886C2.53467 13.9599 2.19543 14.1455 1.51696 14.1455H1.01771Z" fill="#212A34"/>
<path d="M14.9468 14.1647C14.2556 14.1647 13.9099 13.9727 13.9099 13.5886V1.18412C13.9099 0.800078 14.2556 0.608058 14.9468 0.608058H15.4269C16.1054 0.608058 16.4446 0.800078 16.4446 1.18412V13.5886C16.4446 13.9727 16.1054 14.1647 15.4269 14.1647H14.9468Z" fill="#212A34"/>
<path d="M28.7378 6.82952C28.981 6.82952 29.1602 6.88712 29.2755 7.00234C29.3907 7.10475 29.4483 7.27757 29.4483 7.52079V12.7821C29.4483 13.3326 28.9938 13.7166 28.0849 13.9343C27.176 14.1391 26.1583 14.2415 25.0318 14.2415C22.958 14.2415 21.409 13.6846 20.3849 12.5709C19.3608 11.4572 18.8488 9.73543 18.8488 7.40558C18.8488 2.82269 20.9674 0.53125 25.2046 0.53125C25.7935 0.53125 26.3952 0.588856 27.0096 0.704068C27.6369 0.819281 28.1489 0.979297 28.5458 1.18412C28.9554 1.37614 29.1602 1.58736 29.1602 1.81779C29.1602 1.9714 29.0962 2.17622 28.9682 2.43225C28.853 2.67548 28.7122 2.8931 28.5458 3.08512C28.3794 3.27714 28.2321 3.37315 28.1041 3.37315C28.0657 3.37315 27.9057 3.30914 27.6241 3.18113C27.3552 3.05312 27.0096 2.93791 26.5872 2.83549C26.1775 2.73308 25.7039 2.68188 25.1662 2.68188C23.8733 2.68188 22.926 3.07232 22.3243 3.8532C21.7355 4.63408 21.441 5.79901 21.441 7.34797C21.441 10.5099 22.6508 12.0909 25.0702 12.0909C25.7231 12.0909 26.3375 12.0333 26.9136 11.9181V8.98015H25.0318C24.8526 8.98015 24.7182 8.91614 24.6286 8.78813C24.5518 8.66011 24.5134 8.44889 24.5134 8.15446V7.65521C24.5134 7.36077 24.5518 7.14955 24.6286 7.02154C24.7182 6.89352 24.8526 6.82952 25.0318 6.82952H28.7378Z" fill="#212A34"/>
<path d="M33.4399 14.1455C32.7614 14.1455 32.4222 13.9599 32.4222 13.5886V1.18412C32.4222 0.812879 32.7614 0.62726 33.4399 0.62726H33.9391C34.6176 0.62726 34.9569 0.812879 34.9569 1.18412V6.15745H40.7559V1.18412C40.7559 0.812879 41.0951 0.62726 41.7736 0.62726H42.2728C42.9513 0.62726 43.2905 0.812879 43.2905 1.18412V13.5886C43.2905 13.9599 42.9513 14.1455 42.2728 14.1455H41.7736C41.0951 14.1455 40.7559 13.9599 40.7559 13.5886V8.32728H34.9569V13.5886C34.9569 13.9599 34.6176 14.1455 33.9391 14.1455H33.4399Z" fill="#212A34"/>
<path d="M51.8092 14.1071C51.566 14.1071 51.3867 14.0495 51.2715 13.9343C51.1563 13.8191 51.0987 13.6398 51.0987 13.3966V1.18412C51.0987 0.812879 51.438 0.62726 52.1164 0.62726H52.5965C52.9549 0.62726 53.2109 0.672064 53.3646 0.761673C53.531 0.851283 53.6142 0.992098 53.6142 1.18412V11.9565H58.1651C58.3443 11.9565 58.4723 12.0269 58.5491 12.1677C58.6259 12.2957 58.6643 12.5005 58.6643 12.7821V13.2814C58.6643 13.563 58.6259 13.7743 58.5491 13.9151C58.4723 14.0431 58.3443 14.1071 58.1651 14.1071H51.8092Z" fill="#212A34"/>
<path d="M60.7543 14.1071C60.5111 14.1071 60.3319 14.0495 60.2167 13.9343C60.1015 13.8191 60.0439 13.6398 60.0439 13.3966V1.37614C60.0439 1.12011 60.1015 0.940893 60.2167 0.838482C60.3319 0.72327 60.5111 0.665664 60.7543 0.665664H67.4751C67.6543 0.665664 67.7823 0.72967 67.8591 0.857684C67.9487 0.985698 67.9935 1.19692 67.9935 1.49135V1.9906C67.9935 2.28504 67.9487 2.49626 67.8591 2.62427C67.7823 2.75229 67.6543 2.81629 67.4751 2.81629H62.5593V6.15745H66.9374C67.1166 6.15745 67.2446 6.22145 67.3214 6.34947C67.411 6.47748 67.4559 6.6887 67.4559 6.98313V7.48239C67.4559 7.77682 67.411 7.98804 67.3214 8.11606C67.2446 8.24407 67.1166 8.30807 66.9374 8.30807H62.5593V11.9565H67.4943C67.6735 11.9565 67.8015 12.0205 67.8783 12.1485C67.9679 12.2765 68.0127 12.4877 68.0127 12.7821V13.2814C68.0127 13.5758 67.9679 13.7871 67.8783 13.9151C67.8015 14.0431 67.6735 14.1071 67.4943 14.1071H60.7543Z" fill="#212A34"/>
<path d="M74.405 14.1455C73.8546 14.1455 73.5345 14.0239 73.4449 13.7807L69.2205 1.33774C69.1693 1.15852 69.1437 1.0497 69.1437 1.0113C69.1437 0.755273 69.4957 0.62726 70.1998 0.62726H70.699C71.2623 0.62726 71.5951 0.780876 71.6976 1.08811L74.405 9.32578C74.6483 10.1195 74.7955 10.7147 74.8467 11.1116H74.9043C74.9811 10.6251 75.1347 10.0299 75.3651 9.32578L78.0918 1.08811C78.1942 0.780876 78.5271 0.62726 79.0903 0.62726H79.4936C80.1849 0.62726 80.5305 0.755273 80.5305 1.0113C80.5305 1.08811 80.5113 1.19692 80.4729 1.33774L76.2484 13.7807C76.1588 14.0239 75.8324 14.1455 75.2691 14.1455H74.405Z" fill="#212A34"/>
<path d="M83.088 14.1071C82.8447 14.1071 82.6655 14.0495 82.5503 13.9343C82.4351 13.8191 82.3775 13.6398 82.3775 13.3966V1.37614C82.3775 1.12011 82.4351 0.940893 82.5503 0.838482C82.6655 0.72327 82.8447 0.665664 83.088 0.665664H89.8087C89.9879 0.665664 90.1159 0.72967 90.1927 0.857684C90.2823 0.985698 90.3271 1.19692 90.3271 1.49135V1.9906C90.3271 2.28504 90.2823 2.49626 90.1927 2.62427C90.1159 2.75229 89.9879 2.81629 89.8087 2.81629H84.893V6.15745H89.271C89.4502 6.15745 89.5783 6.22145 89.6551 6.34947C89.7447 6.47748 89.7895 6.6887 89.7895 6.98313V7.48239C89.7895 7.77682 89.7447 7.98804 89.6551 8.11606C89.5783 8.24407 89.4502 8.30807 89.271 8.30807H84.893V11.9565H89.8279C90.0071 11.9565 90.1351 12.0205 90.2119 12.1485C90.3015 12.2765 90.3463 12.4877 90.3463 12.7821V13.2814C90.3463 13.5758 90.3015 13.7871 90.2119 13.9151C90.1351 14.0431 90.0071 14.1071 89.8279 14.1071H83.088Z" fill="#212A34"/>
<path d="M93.5511 14.1071C93.3079 14.1071 93.1287 14.0495 93.0135 13.9343C92.8983 13.8191 92.8407 13.6398 92.8407 13.3966V1.18412C92.8407 0.812879 93.1799 0.62726 93.8584 0.62726H94.3384C94.6968 0.62726 94.9529 0.672064 95.1065 0.761673C95.2729 0.851283 95.3561 0.992098 95.3561 1.18412V11.9565H99.907C100.086 11.9565 100.214 12.0269 100.291 12.1677C100.368 12.2957 100.406 12.5005 100.406 12.7821V13.2814C100.406 13.563 100.368 13.7743 100.291 13.9151C100.214 14.0431 100.086 14.1071 99.907 14.1071H93.5511Z" fill="#212A34"/>
<path d="M8.21256 49.4688C6.58943 49.4688 5.13588 49.2992 3.85191 48.9601C2.59217 48.6209 1.61102 48.197 0.908469 47.6882C0.302823 47.2279 0 46.8161 0 46.4527C0 45.9924 0.242259 45.4231 0.726775 44.7448C1.21129 44.0422 1.61102 43.691 1.92595 43.691C2.07131 43.691 2.37413 43.8242 2.83442 44.0907C3.58542 44.4783 4.32431 44.7932 5.05109 45.0355C5.77786 45.2778 6.62577 45.3989 7.5948 45.3989C8.68496 45.3989 9.59343 45.1445 10.3202 44.6358C11.0712 44.1028 11.4467 43.3155 11.4467 42.2737C11.4467 41.6197 11.2529 41.0746 10.8653 40.6385C10.5019 40.1782 10.0416 39.8027 9.48442 39.512C8.92722 39.1971 8.152 38.8337 7.15874 38.4218L5.88688 37.8768C4.77249 37.3922 3.8398 36.8835 3.0888 36.3505C2.33779 35.7933 1.72003 35.0544 1.23552 34.1339C0.751001 33.2133 0.508743 32.0504 0.508743 30.6453C0.508743 29.1191 0.884243 27.823 1.63524 26.7571C2.41047 25.6669 3.44007 24.8554 4.72404 24.3224C6.00801 23.7894 7.41311 23.5229 8.93934 23.5229C10.0295 23.5229 11.0833 23.6441 12.1008 23.8863C13.1183 24.1286 13.9056 24.4556 14.4628 24.8675C14.9716 25.2309 15.2259 25.5943 15.2259 25.9576C15.2259 26.3937 15.02 26.963 14.6082 27.6656C14.1963 28.3439 13.833 28.6831 13.518 28.6831C13.3969 28.6831 13.2031 28.6225 12.9366 28.5014C12.6701 28.3802 12.4642 28.2833 12.3188 28.2106C11.3498 27.7988 10.3202 27.5929 9.23005 27.5929C7.92185 27.5929 6.95282 27.8594 6.32295 28.3923C5.7173 28.9011 5.41448 29.5552 5.41448 30.3546C5.41448 31.0572 5.59617 31.6386 5.95956 32.0989C6.32295 32.535 6.77112 32.8862 7.30409 33.1527C7.83706 33.4192 8.6244 33.7584 9.66611 34.1702C11.047 34.7274 12.1856 35.2725 13.082 35.8054C13.9783 36.3384 14.7414 37.1015 15.3713 38.0948C16.0254 39.0638 16.3524 40.3115 16.3524 41.8377C16.3524 44.3814 15.5772 46.2952 14.0268 47.5792C12.4763 48.839 10.5382 49.4688 8.21256 49.4688Z" fill="#FAB706"/>
<path d="M21.985 49.2871C20.701 49.2871 20.059 48.9359 20.059 48.2333V24.7585C20.059 24.0559 20.701 23.7046 21.985 23.7046H22.8934C24.2016 23.7046 24.8557 24.0559 24.8557 24.7585V34.9697H25.0011L32.1961 24.3224C32.4869 23.9106 33.1894 23.7046 34.3038 23.7046H35.5757C36.1571 23.7046 36.5931 23.7531 36.8838 23.85C37.1746 23.9469 37.3199 24.068 37.3199 24.2134C37.3199 24.4314 37.223 24.6858 37.0292 24.9765L29.289 35.9145L38.3011 48.0516C38.4949 48.3423 38.5918 48.5725 38.5918 48.742C38.5918 49.1054 37.9619 49.2871 36.7022 49.2871H35.1759C34.0373 49.2871 33.3226 49.0812 33.0319 48.6694L25.0011 37.4044H24.8557V48.2333C24.8557 48.9359 24.2016 49.2871 22.8934 49.2871H21.985Z" fill="#FAB706"/>
<path d="M42.8133 49.3235C41.5051 49.3235 40.851 48.9601 40.851 48.2333V24.7585C40.851 24.0317 41.5051 23.6683 42.8133 23.6683H43.7218C45.0058 23.6683 45.6477 24.0317 45.6477 24.7585V48.2333C45.6477 48.9601 45.0058 49.3235 43.7218 49.3235H42.8133Z" fill="#FAB706"/>
<path d="M52.7775 49.2145C52.3172 49.2145 51.9781 49.1054 51.76 48.8874C51.542 48.6694 51.433 48.3302 51.433 47.8699V24.7585C51.433 24.0559 52.075 23.7046 53.3589 23.7046H54.2674C54.9457 23.7046 55.4302 23.7894 55.721 23.959C56.0359 24.1286 56.1934 24.3951 56.1934 24.7585V45.1445H64.8056C65.1448 45.1445 65.3871 45.2778 65.5324 45.5442C65.6778 45.7865 65.7505 46.1741 65.7505 46.7071V47.6519C65.7505 48.1849 65.6778 48.5846 65.5324 48.8511C65.3871 49.0933 65.1448 49.2145 64.8056 49.2145H52.7775Z" fill="#FAB706"/>
<path d="M69.6694 49.2145C69.2091 49.2145 68.8699 49.1054 68.6519 48.8874C68.4338 48.6694 68.3248 48.3302 68.3248 47.8699V24.7585C68.3248 24.0559 68.9668 23.7046 70.2508 23.7046H71.1592C71.8376 23.7046 72.3221 23.7894 72.6128 23.959C72.9277 24.1286 73.0852 24.3951 73.0852 24.7585V45.1445H81.6975C82.0367 45.1445 82.2789 45.2778 82.4243 45.5442C82.5696 45.7865 82.6423 46.1741 82.6423 46.7071V47.6519C82.6423 48.1849 82.5696 48.5846 82.4243 48.8511C82.2789 49.0933 82.0367 49.2145 81.6975 49.2145H69.6694Z" fill="#FAB706"/>
<path d="M92.104 49.4688C90.4809 49.4688 89.0273 49.2992 87.7434 48.9601C86.4836 48.6209 85.5025 48.197 84.7999 47.6882C84.1943 47.2279 83.8914 46.8161 83.8914 46.4527C83.8914 45.9924 84.1337 45.4231 84.6182 44.7448C85.1027 44.0422 85.5025 43.691 85.8174 43.691C85.9628 43.691 86.2656 43.8242 86.7259 44.0907C87.4769 44.4783 88.2158 44.7932 88.9425 45.0355C89.6693 45.2778 90.5172 45.3989 91.4862 45.3989C92.5764 45.3989 93.4849 45.1445 94.2117 44.6358C94.9627 44.1028 95.3382 43.3155 95.3382 42.2737C95.3382 41.6197 95.1443 41.0746 94.7567 40.6385C94.3933 40.1782 93.9331 39.8027 93.3759 39.512C92.8187 39.1971 92.0434 38.8337 91.0502 38.4218L89.7783 37.8768C88.6639 37.3922 87.7312 36.8835 86.9802 36.3505C86.2292 35.7933 85.6115 35.0544 85.127 34.1339C84.6424 33.2133 84.4002 32.0504 84.4002 30.6453C84.4002 29.1191 84.7757 27.823 85.5267 26.7571C86.3019 25.6669 87.3315 24.8554 88.6155 24.3224C89.8995 23.7894 91.3046 23.5229 92.8308 23.5229C93.9209 23.5229 94.9748 23.6441 95.9923 23.8863C97.0097 24.1286 97.7971 24.4556 98.3543 24.8675C98.863 25.2309 99.1174 25.5943 99.1174 25.9576C99.1174 26.3937 98.9115 26.963 98.4996 27.6656C98.0878 28.3439 97.7244 28.6831 97.4095 28.6831C97.2883 28.6831 97.0945 28.6225 96.828 28.5014C96.5616 28.3802 96.3556 28.2833 96.2103 28.2106C95.2413 27.7988 94.2117 27.5929 93.1215 27.5929C91.8133 27.5929 90.8443 27.8594 90.2144 28.3923C89.6087 28.9011 89.3059 29.5552 89.3059 30.3546C89.3059 31.0572 89.4876 31.6386 89.851 32.0989C90.2144 32.535 90.6626 32.8862 91.1955 33.1527C91.7285 33.4192 92.5158 33.7584 93.5576 34.1702C94.9384 34.7274 96.077 35.2725 96.9734 35.8054C97.8698 36.3384 98.6329 37.1015 99.2627 38.0948C99.9168 39.0638 100.244 40.3115 100.244 41.8377C100.244 44.3814 99.4687 46.2952 97.9182 47.5792C96.3678 48.839 94.4297 49.4688 92.104 49.4688Z" fill="#FAB706"/>
</svg>
