<svg width="19" height="18" viewBox="0 0 19 18" fill="none" xmlns="http://www.w3.org/2000/svg">
<path d="M15.9375 15.75L11.4375 11.25M12.9375 7.5C12.9375 8.18944 12.8017 8.87213 12.5379 9.50909C12.274 10.146 11.8873 10.7248 11.3998 11.2123C10.9123 11.6998 10.3335 12.0865 9.69659 12.3504C9.05963 12.6142 8.37694 12.75 7.6875 12.75C6.99806 12.75 6.31537 12.6142 5.67841 12.3504C5.04145 12.0865 4.4627 11.6998 3.97519 11.2123C3.48768 10.7248 3.10097 10.146 2.83713 9.50909C2.5733 8.87213 2.4375 8.18944 2.4375 7.5C2.4375 6.10761 2.99062 4.77226 3.97519 3.78769C4.95976 2.80312 6.29511 2.25 7.6875 2.25C9.07989 2.25 10.4152 2.80312 11.3998 3.78769C12.3844 4.77226 12.9375 6.10761 12.9375 7.5Z" stroke="#6B7280" stroke-width="2" stroke-linecap="round" stroke-linejoin="round"/>
</svg>
