<svg width="44" height="44" viewBox="0 0 44 44" fill="none" xmlns="http://www.w3.org/2000/svg"><path d="M2.04137 13.8099C2.02113 13.7998 2.01571 13.7912 2.0132 13.787C2.00892 13.7797 2.00436 13.767 2.00436 13.75C2.00436 13.733 2.00892 13.7203 2.0132 13.713C2.01571 13.7088 2.02113 13.7002 2.04137 13.6901L21.9701 3.72578C21.9889 3.71636 22.0111 3.71636 22.0299 3.72578L43.1036 14.2626C43.1263 14.274 43.1406 14.2971 43.1406 14.3225V37.5737C43.1406 37.6107 43.1107 37.6406 43.0737 37.6406H42.1763C42.1393 37.6406 42.1094 37.6107 42.1094 37.5737V16.6238C42.1094 15.2964 40.7124 14.433 39.5251 15.0266L22.0299 23.7742C22.0111 23.7836 21.9889 23.7836 21.9701 23.7742L2.04137 13.8099Z" stroke="#FAB706" stroke-width="1.719"/><path d="M9.10938 20.9109C9.10938 20.8927 9.11339 20.8837 9.11664 20.8781C9.12102 20.8706 9.12899 20.8615 9.14112 20.854C9.15326 20.8465 9.16495 20.8434 9.17368 20.8429C9.18014 20.8425 9.18996 20.8429 9.20625 20.851L21.2014 26.8486C21.7041 27.1 22.2959 27.1 22.7986 26.8486L34.7937 20.851C34.81 20.8429 34.8199 20.8425 34.8263 20.8429C34.8351 20.8434 34.8467 20.8465 34.8589 20.854C34.871 20.8615 34.879 20.8706 34.8834 20.8781C34.8866 20.8837 34.8906 20.8927 34.8906 20.9109V31.0524C34.8906 31.0777 34.8763 31.1009 34.8536 31.1122L22.0299 37.5241C22.0111 37.5335 21.9889 37.5335 21.9701 37.5241L9.14638 31.1122C9.1237 31.1009 9.10938 31.0777 9.10938 31.0524V20.9109Z" stroke="#FAB706" stroke-width="1.719"/></svg>