<svg width="46" height="46" viewBox="0 0 46 46" fill="none" xmlns="http://www.w3.org/2000/svg"><path d="M18.472 3.59375H17.5089C16.5394 3.6231 15.59 3.87731 14.7356 4.33633C13.8812 4.79534 13.1451 5.44661 12.5854 6.23875C12.5351 6.23875 12.492 6.31062 12.4417 6.31062C11.2139 6.32404 10.0334 6.78598 9.12252 7.60944C8.21169 8.43289 7.63343 9.56101 7.49668 10.7812C6.79444 10.9893 6.14661 11.3494 5.59923 11.836C5.05184 12.3226 4.61833 12.9238 4.32949 13.5968C4.04065 14.2698 3.90357 14.9982 3.92798 15.7302C3.9524 16.4622 4.13771 17.1799 4.47075 17.8322C3.01594 18.9826 2.07064 20.6579 1.83811 22.4979C1.60559 24.338 2.1044 26.1958 3.22731 27.6719C2.92721 28.0649 2.71345 28.5169 2.59998 28.9983C2.48652 29.4796 2.4759 29.9795 2.56884 30.4652C2.66178 30.9509 2.85618 31.4116 3.13932 31.817C3.42247 32.2225 3.78799 32.5636 4.212 32.8181C3.92765 33.5711 3.8465 34.3857 3.97671 35.18C4.10692 35.9742 4.4439 36.7203 4.95378 37.343C5.46366 37.9658 6.12849 38.4434 6.88144 38.7279C7.63439 39.0123 8.44895 39.0936 9.24325 38.9634C9.59155 39.8194 10.1888 40.551 10.9577 41.0636C11.7266 41.5762 12.6317 41.8461 13.5557 41.8384C13.962 41.8683 14.3705 41.8441 14.7704 41.7666C15.5096 42.1417 16.3212 42.3525 17.1495 42.3847H18.472C19.2669 42.3529 20.022 42.0286 20.5924 41.4741C21.1628 40.9196 21.5083 40.174 21.5626 39.3803V6.74188C21.5177 5.93128 21.1793 5.16476 20.6105 4.58544C20.0418 4.00612 19.2816 3.65361 18.472 3.59375V3.59375Z" stroke="#FAB706" stroke-width="1.797" stroke-linecap="round" stroke-linejoin="round"/><path d="M1.79688 23.4176C1.85246 21.761 2.54963 20.1908 3.74118 19.0386C4.93273 17.8863 6.52542 17.2422 8.18297 17.2422C9.84052 17.2422 11.4332 17.8863 12.6248 19.0386C13.8163 20.1908 14.5135 21.761 14.5691 23.4176" stroke="#FAB706" stroke-width="1.797" stroke-linecap="round" stroke-linejoin="round"/><path d="M4.63672 24.1213C4.6363 23.4199 4.796 22.7277 5.10366 22.0974C5.41132 21.4672 5.85882 20.9155 6.41203 20.4844" stroke="#FAB706" stroke-width="1.797" stroke-linecap="round" stroke-linejoin="round"/><path d="M7.82715 9.34404C8.24863 8.31767 9.01307 7.46928 9.99012 6.94351C10.9672 6.41775 12.0964 6.24716 13.1851 6.46085C14.2739 6.67453 15.2548 7.25925 15.9607 8.11531C16.6665 8.97137 17.0536 10.0458 17.0559 11.1553" stroke="#FAB706" stroke-width="1.797" stroke-linecap="round" stroke-linejoin="round"/><path d="M6.20996 30.1875C6.72695 29.9672 7.30459 29.934 7.84338 30.0938C8.38217 30.2536 8.84837 30.5962 9.16167 31.0628C9.47497 31.5293 9.61575 32.0905 9.55977 32.6497C9.50378 33.2089 9.25453 33.7311 8.85496 34.1262" stroke="#FAB706" stroke-width="1.797" stroke-linecap="round" stroke-linejoin="round"/><path d="M10.2705 12.9381C10.6274 12.5908 11.1058 12.3965 11.6038 12.3965C12.1018 12.3965 12.5801 12.5908 12.9371 12.9381" stroke="#FAB706" stroke-width="1.797" stroke-linecap="round" stroke-linejoin="round"/><path d="M10.9824 36.3682C11.3406 36.0123 11.8251 35.8125 12.3301 35.8125C12.8351 35.8125 13.3195 36.0123 13.6777 36.3682" stroke="#FAB706" stroke-width="1.797" stroke-linecap="round" stroke-linejoin="round"/><path d="M21.3106 28.0313H13.4044C12.1119 28.0313 10.8724 27.5179 9.95856 26.604C9.04467 25.6901 8.53125 24.4506 8.53125 23.1582V21.6416" stroke="#FAB706" stroke-width="1.797" stroke-linecap="round" stroke-linejoin="round"/><path d="M21.3106 17.3866H17.7959C17.224 17.3866 16.6756 17.1594 16.2712 16.755C15.8668 16.3506 15.6396 15.8022 15.6396 15.2303V14.5547" stroke="#FAB706" stroke-width="1.797" stroke-linecap="round" stroke-linejoin="round"/><path d="M21.3106 32.2861H17.7959C17.224 32.2861 16.6756 32.5133 16.2712 32.9177C15.8668 33.3221 15.6396 33.8705 15.6396 34.4424V35.118" stroke="#FAB706" stroke-width="1.797" stroke-linecap="round" stroke-linejoin="round"/><path d="M17.7608 40.0914C17.5554 40.1242 17.3454 40.112 17.1452 40.0558C16.945 39.9995 16.7595 39.9005 16.6013 39.7655C16.4431 39.6306 16.316 39.4629 16.2289 39.2741C16.1418 39.0853 16.0967 38.8798 16.0967 38.6719C16.0967 38.4639 16.1418 38.2585 16.2289 38.0697C16.316 37.8808 16.4431 37.7132 16.6013 37.5782C16.7595 37.4433 16.945 37.3443 17.1452 37.288C17.3454 37.2317 17.5554 37.2196 17.7608 37.2523" stroke="#FAB706" stroke-width="1.797" stroke-linecap="round" stroke-linejoin="round"/><path d="M18.6875 23.7188H21.5625" stroke="#FAB706" stroke-width="1.797" stroke-linecap="round" stroke-linejoin="round"/><path d="M24.4375 7.04375V38.9563C24.4394 39.8707 24.8035 40.7471 25.4501 41.3937C26.0967 42.0403 26.9731 42.4044 27.8875 42.4062H29.2603C30.0837 42.3721 30.8902 42.1612 31.625 41.7881C32.0214 41.8923 32.4299 41.9431 32.8397 41.9391C33.7695 41.9383 34.6777 41.6583 35.4465 41.1355C36.2154 40.6126 36.8096 39.871 37.1522 39.0066H37.4397C38.3236 39.0745 39.2085 38.8896 39.9912 38.4735C40.7739 38.0573 41.4221 37.427 41.86 36.6562C42.1808 36.0799 42.3726 35.4408 42.4222 34.7831C42.4719 34.1254 42.3781 33.4648 42.1475 32.8469C42.5742 32.592 42.942 32.2495 43.2266 31.8419C43.5112 31.4344 43.7061 30.9712 43.7985 30.4828C43.8908 29.9944 43.8786 29.492 43.7625 29.0087C43.6464 28.5254 43.4291 28.0722 43.125 27.6791C44.1429 26.3329 44.6458 24.6671 44.543 22.9826C44.4402 21.2981 43.7384 19.7058 42.5644 18.4934C42.3791 18.3005 42.2492 18.0611 42.1885 17.8005C42.1278 17.5399 42.1384 17.2678 42.2194 17.0128C42.5635 15.8513 42.4705 14.604 41.9581 13.5063C41.4457 12.4086 40.5492 11.5364 39.4378 11.0544C39.2602 10.9828 39.1023 10.8698 38.9772 10.7248C38.8522 10.5797 38.7637 10.4069 38.7191 10.2206C38.4657 9.12749 37.8497 8.15235 36.9713 7.45408C36.0929 6.75581 35.004 6.37557 33.8819 6.37531C33.8316 6.37531 33.7884 6.22438 33.7381 6.23156C33.1813 5.44549 32.4506 4.79852 31.6029 4.341C30.7552 3.88348 29.8133 3.62776 28.8506 3.59375H27.8875C26.9731 3.59565 26.0967 3.95974 25.4501 4.60633C24.8035 5.25292 24.4394 6.12934 24.4375 7.04375Z" stroke="#FAB706" stroke-width="1.797" stroke-linecap="round" stroke-linejoin="round"/><path d="M44.5632 23.4176C44.5076 21.761 43.8105 20.1908 42.6189 19.0386C41.4273 17.8863 39.8347 17.2422 38.1771 17.2422C36.5196 17.2422 34.9269 17.8863 33.7353 19.0386C32.5438 20.1908 31.8466 21.761 31.791 23.4176" stroke="#FAB706" stroke-width="1.797" stroke-linecap="round" stroke-linejoin="round"/><path d="M41.7236 24.1213C41.724 23.4199 41.5643 22.7277 41.2566 22.0974C40.949 21.4672 40.5015 20.9155 39.9482 20.4844" stroke="#FAB706" stroke-width="1.797" stroke-linecap="round" stroke-linejoin="round"/><path d="M38.5325 9.34404C38.111 8.31767 37.3465 7.46928 36.3695 6.94351C35.3924 6.41775 34.2633 6.24716 33.1745 6.46085C32.0857 6.67453 31.1048 7.25925 30.3989 8.11531C29.6931 8.97137 29.306 10.0458 29.3037 11.1553" stroke="#FAB706" stroke-width="1.797" stroke-linecap="round" stroke-linejoin="round"/><path d="M40.1489 30.1875C39.6319 29.9672 39.0543 29.934 38.5155 30.0938C37.9767 30.2536 37.5105 30.5962 37.1972 31.0628C36.8839 31.5293 36.7431 32.0905 36.7991 32.6497C36.8551 33.2089 37.1044 33.7311 37.5039 34.1262" stroke="#FAB706" stroke-width="1.797" stroke-linecap="round" stroke-linejoin="round"/><path d="M36.0889 12.9376C35.7307 12.5816 35.2462 12.3818 34.7412 12.3818C34.2362 12.3818 33.7518 12.5816 33.3936 12.9376" stroke="#FAB706" stroke-width="1.797" stroke-linecap="round" stroke-linejoin="round"/><path d="M35.377 36.3682C35.0188 36.0123 34.5343 35.8125 34.0293 35.8125C33.5243 35.8125 33.0398 36.0123 32.6816 36.3682" stroke="#FAB706" stroke-width="1.797" stroke-linecap="round" stroke-linejoin="round"/><path d="M25.0488 28.0313H32.9551C34.2475 28.0313 35.487 27.5179 36.4009 26.604C37.3148 25.6901 37.8282 24.4506 37.8282 23.1582V21.6416" stroke="#FAB706" stroke-width="1.797" stroke-linecap="round" stroke-linejoin="round"/><path d="M30.727 14.5479V15.2235C30.727 15.7954 30.4998 16.3438 30.0954 16.7482C29.691 17.1526 29.1426 17.3797 28.5707 17.3797H25.0488" stroke="#FAB706" stroke-width="1.797" stroke-linecap="round" stroke-linejoin="round"/><path d="M25.0488 32.2861H28.5635C29.1354 32.2861 29.6838 32.5133 30.0882 32.9177C30.4926 33.3221 30.7198 33.8705 30.7198 34.4424V35.118" stroke="#FAB706" stroke-width="1.797" stroke-linecap="round" stroke-linejoin="round"/><path d="M28.5986 40.092C28.9363 40.0381 29.2438 39.8656 29.4657 39.6054C29.6876 39.3452 29.8096 39.0144 29.8096 38.6725C29.8096 38.3305 29.6876 37.9997 29.4657 37.7395C29.2438 37.4794 28.9363 37.3068 28.5986 37.2529" stroke="#FAB706" stroke-width="1.797" stroke-linecap="round" stroke-linejoin="round"/><path d="M27.3125 23.7188H24.4375" stroke="#FAB706" stroke-width="1.797" stroke-linecap="round" stroke-linejoin="round"/></svg>