<svg width="44" height="44" viewBox="0 0 44 44" fill="none" xmlns="http://www.w3.org/2000/svg"><path d="M2.57812 41.0849V17.3652H14.0938H14.9531V16.5059V10.4902H29.0469V16.5059V17.3621L29.9032 17.3652L41.4219 17.4067V41.1276L2.57812 41.0849Z" stroke="#FAB706" stroke-width="1.719"/><path stroke="#FAB706" stroke-width="1.719" d="M14.953 10.49H29.046999999999997V41.084H14.953z"/><circle cx="22" cy="17.537" r="4.297" stroke="#FAB706" stroke-width="1.719"/><path d="M21.7842 15.8232V18.2295H23.1592" stroke="#FAB706" stroke-width=".688" stroke-linecap="round" stroke-linejoin="round"/><path stroke="#FAB706" stroke-width="1.719" d="M17.703 30.105H26.296999999999997V41.084H17.703z"/><path d="M8.75098 21.3184V23.7246" stroke="#FAB706" stroke-width="1.719" stroke-linecap="round" stroke-linejoin="round"/><path d="M12.1885 21.3184V23.7246" stroke="#FAB706" stroke-width="1.719" stroke-linecap="round" stroke-linejoin="round"/><path d="M8.75098 26.8184V29.2246" stroke="#FAB706" stroke-width="1.719" stroke-linecap="round" stroke-linejoin="round"/><path d="M12.1885 26.8184V29.2246" stroke="#FAB706" stroke-width="1.719" stroke-linecap="round" stroke-linejoin="round"/><path d="M8.75098 32.3184V34.7246" stroke="#FAB706" stroke-width="1.719" stroke-linecap="round" stroke-linejoin="round"/><path d="M12.1885 32.3184V34.7246" stroke="#FAB706" stroke-width="1.719" stroke-linecap="round" stroke-linejoin="round"/><path d="M35.249 26.8184V29.2246" stroke="#FAB706" stroke-width="1.719" stroke-linecap="round" stroke-linejoin="round"/><path d="M35.249 32.3184V34.7246" stroke="#FAB706" stroke-width="1.719" stroke-linecap="round" stroke-linejoin="round"/><path d="M38.6865 26.8184V29.2246" stroke="#FAB706" stroke-width="1.719" stroke-linecap="round" stroke-linejoin="round"/><path d="M38.6865 32.3184V34.7246" stroke="#FAB706" stroke-width="1.719" stroke-linecap="round" stroke-linejoin="round"/><path d="M31.8115 21.3184V23.7246" stroke="#FAB706" stroke-width="1.719" stroke-linecap="round" stroke-linejoin="round"/><path d="M35.249 21.3184V23.7246" stroke="#FAB706" stroke-width="1.719" stroke-linecap="round" stroke-linejoin="round"/><path d="M38.6865 21.3184V23.7246" stroke="#FAB706" stroke-width="1.719" stroke-linecap="round" stroke-linejoin="round"/><path d="M31.8115 26.8184V29.2246" stroke="#FAB706" stroke-width="1.719" stroke-linecap="round" stroke-linejoin="round"/><path d="M31.8115 32.3184V34.7246" stroke="#FAB706" stroke-width="1.719" stroke-linecap="round" stroke-linejoin="round"/><path d="M18.7314 10.3645V6.42402M18.7314 6.42402V2.25701C19.7991 2.5402 22.1468 3.06738 22.9965 2.9105C23.8463 2.75362 24.8649 2.24595 25.268 2.01172L25.1046 6.34231C24.4455 6.55475 22.8952 6.88811 21.967 6.52207C21.0388 6.15602 19.4232 6.30418 18.7314 6.42402Z" stroke="#FAB706" stroke-width="1.719" stroke-linecap="round" stroke-linejoin="round"/><path d="M5.31348 21.3184V23.7246" stroke="#FAB706" stroke-width="1.719" stroke-linecap="round" stroke-linejoin="round"/><path d="M5.31348 26.8184V29.2246" stroke="#FAB706" stroke-width="1.719" stroke-linecap="round" stroke-linejoin="round"/><path d="M5.31348 32.3184V34.7246" stroke="#FAB706" stroke-width="1.719" stroke-linecap="round" stroke-linejoin="round"/></svg>