<svg width="44" height="44" viewBox="0 0 44 44" fill="none" xmlns="http://www.w3.org/2000/svg"><path d="M9.58224 31.2313L8.45612 39.7604C8.4433 39.8575 8.45134 39.9561 8.47971 40.0498C8.50808 40.1434 8.55611 40.23 8.62061 40.3036C8.68511 40.3772 8.76458 40.4362 8.8537 40.4766C8.94283 40.517 9.03956 40.538 9.13743 40.538H34.8609C34.9588 40.538 35.0555 40.517 35.1447 40.4766C35.2338 40.4362 35.3133 40.3772 35.3778 40.3036C35.4423 40.23 35.4903 40.1434 35.5187 40.0498C35.547 39.9561 35.5551 39.8575 35.5422 39.7604L34.4175 31.2313C34.2603 30.0472 33.7641 28.9338 32.9887 28.0252C32.2133 27.1166 31.1917 26.4515 30.0471 26.1101L25.4195 24.7351C25.4229 24.6767 25.4374 24.621 25.4374 24.5619V22.7125C26.2611 22.2293 26.9739 21.5782 27.5296 20.8016C28.0854 20.0249 28.4716 19.1401 28.6631 18.2046C29.3348 18.0718 29.938 17.7063 30.3666 17.1725C30.7952 16.6386 31.0217 15.9706 31.0061 15.2861C31.0071 14.8845 30.9287 14.4866 30.7753 14.1154C30.6219 13.7442 30.3966 13.407 30.1124 13.1233C30.32 12.4725 30.4436 11.7979 30.4802 11.1158L30.6438 7.91819C30.6438 5.35656 28.2712 3.27344 25.3549 3.27344H18.5026C15.5855 3.27344 13.2129 5.35656 13.2143 7.95325L13.4295 12.147C13.4515 12.54 13.5609 12.9231 13.7499 13.2683C13.2604 13.8277 12.9915 14.5463 12.9936 15.2896C12.9781 15.9743 13.2049 16.6425 13.6339 17.1765C14.0629 17.7104 14.6667 18.0757 15.3387 18.208C15.5305 19.1428 15.9165 20.0268 16.4719 20.8028C17.0272 21.5788 17.7394 22.2294 18.5624 22.7125V24.5605C18.5624 24.6196 18.5768 24.6753 18.5802 24.7337L13.9527 26.1087C12.8078 26.4503 11.7861 27.1155 11.0107 28.0244C10.2353 28.9333 9.73922 30.047 9.58224 31.2313ZM29.6311 15.2861C29.6385 15.5815 29.5645 15.8732 29.4173 16.1294C29.2701 16.3856 29.0554 16.5964 28.7965 16.7388V13.8341C29.0554 13.9763 29.2702 14.187 29.4174 14.4431C29.5647 14.6992 29.6386 14.9908 29.6311 15.2861ZM15.2012 16.7388C14.9472 16.5908 14.7365 16.3788 14.5901 16.124C14.4436 15.8692 14.3666 15.5804 14.3666 15.2865C14.3666 14.9925 14.4436 14.7038 14.5901 14.4489C14.7365 14.1941 14.9472 13.9821 15.2012 13.8341V16.7388ZM15.2094 11.3165C15.2094 11.3302 15.2012 11.3426 15.2012 11.3571V12.3842C15.0993 12.4112 14.9992 12.4445 14.9014 12.4839C14.846 12.3544 14.8125 12.2166 14.8024 12.0762L14.5879 7.91819C14.5879 6.11487 16.3438 4.64844 18.5026 4.64844H25.3604C27.5184 4.64844 29.2743 6.11487 29.2791 7.87969L29.1162 11.0422C29.0875 11.5045 29.0107 11.9625 28.8872 12.4089C28.8577 12.4014 28.8316 12.3869 28.802 12.3808V11.7833V11.7737V11.5764C28.802 11.394 28.7296 11.2192 28.6006 11.0902C28.4717 10.9613 28.2968 10.8889 28.1145 10.8889C22.0947 10.8889 19.6582 8.02956 19.6397 8.00137C19.5663 7.91064 19.4711 7.84007 19.363 7.79629C19.2548 7.75252 19.1373 7.73698 19.0215 7.75115C18.9057 7.76531 18.7954 7.80872 18.701 7.87727C18.6066 7.94582 18.5312 8.03727 18.4819 8.143C18.1327 8.891 16.4937 10.068 15.5429 10.6386C15.4272 10.7067 15.334 10.8072 15.2747 10.9277C15.2154 11.0481 15.1928 11.1833 15.2094 11.3165ZM16.5762 16.8571V11.6183C17.5389 11.0283 18.4208 10.3156 19.1997 9.49806C20.2997 10.4351 22.8709 12.103 27.4215 12.2577V15.7949V16.8571C27.4215 18.2955 26.8501 19.675 25.8329 20.6922C24.8158 21.7093 23.4363 22.2808 21.9978 22.2808C20.5594 22.2808 19.1798 21.7093 18.1627 20.6922C17.1455 19.675 16.5741 18.2955 16.5741 16.8571H16.5762ZM24.0624 23.334V24.5605C24.0624 25.1075 23.8451 25.6321 23.4583 26.0189C23.0715 26.4057 22.5469 26.623 21.9999 26.623C21.4529 26.623 20.9283 26.4057 20.5415 26.0189C20.1547 25.6321 19.9374 25.1075 19.9374 24.5605V23.334C21.2789 23.763 22.7208 23.763 24.0624 23.334ZM16.933 26.6581C16.9922 27.4362 17.3388 28.1645 17.9053 28.7013C18.4718 29.238 19.2177 29.5449 19.9979 29.5621C20.0171 29.5621 20.0364 29.5621 20.0556 29.5621C20.238 29.5695 20.4158 29.5043 20.55 29.3806C20.6842 29.257 20.7638 29.0851 20.7713 28.9028C20.7788 28.7204 20.7135 28.5426 20.5899 28.4084C20.4662 28.2741 20.2943 28.1945 20.112 28.1871C19.863 28.187 19.6166 28.1361 19.3879 28.0377C19.1592 27.9393 18.9529 27.7953 18.7817 27.6145C18.6104 27.4337 18.4778 27.22 18.3919 26.9863C18.306 26.7526 18.2685 26.5038 18.2819 26.2552L18.9247 26.0641C19.2035 26.6428 19.64 27.1312 20.184 27.473C20.728 27.8147 21.3574 27.996 21.9999 27.996C22.6423 27.996 23.2717 27.8147 23.8157 27.473C24.3597 27.1312 24.7962 26.6428 25.0751 26.0641L25.7179 26.2552C25.7312 26.5038 25.6938 26.7526 25.6079 26.9863C25.5219 27.22 25.3893 27.4337 25.2181 27.6145C25.0468 27.7953 24.8405 27.9393 24.6118 28.0377C24.3831 28.1361 24.1367 28.187 23.8877 28.1871C23.7054 28.1945 23.5335 28.2741 23.4099 28.4084C23.2862 28.5426 23.221 28.7204 23.2284 28.9028C23.2359 29.0851 23.3155 29.257 23.4497 29.3806C23.5839 29.5043 23.7618 29.5695 23.9441 29.5621C23.9634 29.5621 23.9826 29.5621 24.0019 29.5621C24.7817 29.5449 25.5274 29.2384 26.0938 28.702C26.6603 28.1657 27.007 27.4379 27.0667 26.6601L29.6545 27.4301C30.5449 27.6956 31.3395 28.2129 31.9427 28.9197C32.5459 29.6264 32.9319 30.4924 33.0542 31.4135L34.0765 39.1651H31.1319V35.1583C31.1319 34.976 31.0595 34.8011 30.9306 34.6722C30.8016 34.5432 30.6268 34.4708 30.4444 34.4708C30.2621 34.4708 30.0872 34.5432 29.9583 34.6722C29.8294 34.8011 29.7569 34.976 29.7569 35.1583V39.163H22.6874V29.4631C22.6874 29.2807 22.6149 29.1059 22.486 28.9769C22.3571 28.848 22.1822 28.7756 21.9999 28.7756C21.8175 28.7756 21.6427 28.848 21.5137 28.9769C21.3848 29.1059 21.3124 29.2807 21.3124 29.4631V39.163H14.2428V35.1583C14.2428 34.976 14.1704 34.8011 14.0414 34.6722C13.9125 34.5432 13.7376 34.4708 13.5553 34.4708C13.373 34.4708 13.1981 34.5432 13.0692 34.6722C12.9402 34.8011 12.8678 34.976 12.8678 35.1583V39.163H9.92324L10.9456 31.4114C11.0684 30.4909 11.4546 29.6254 12.0577 28.9192C12.6609 28.213 13.4552 27.6961 14.3452 27.4308L16.933 26.6581Z" fill="#FAB706"/><path d="M24.6177 32.9131C24.989 32.9131 25.2901 32.6121 25.2901 32.2407C25.2901 31.8694 24.989 31.5684 24.6177 31.5684C24.2463 31.5684 23.9453 31.8694 23.9453 32.2407C23.9453 32.6121 24.2463 32.9131 24.6177 32.9131Z" fill="#FAB706"/><path d="M24.6177 36.2705C24.7507 36.2705 24.8807 36.2311 24.9912 36.1572C25.1018 36.0833 25.188 35.9783 25.2389 35.8555C25.2898 35.7326 25.3031 35.5974 25.2771 35.467C25.2512 35.3366 25.1872 35.2167 25.0931 35.1227C24.9991 35.0287 24.8793 34.9646 24.7489 34.9387C24.6184 34.9128 24.4832 34.9261 24.3604 34.977C24.2375 35.0279 24.1325 35.114 24.0586 35.2246C23.9847 35.3352 23.9453 35.4652 23.9453 35.5982C23.9453 35.6865 23.9627 35.7739 23.9965 35.8555C24.0303 35.937 24.0798 36.0112 24.1422 36.0736C24.2047 36.136 24.2788 36.1856 24.3604 36.2194C24.442 36.2531 24.5294 36.2705 24.6177 36.2705Z" fill="#FAB706"/><path d="M23.4272 19.5783C23.5876 19.4916 23.7071 19.3447 23.7592 19.17C23.8114 18.9952 23.792 18.8069 23.7053 18.6464C23.6186 18.486 23.4717 18.3665 23.2969 18.3144C23.1222 18.2622 22.9338 18.2816 22.7734 18.3683C22.5575 18.4998 22.3108 18.5719 22.0582 18.5775C21.8055 18.5831 21.5558 18.5218 21.3344 18.3999C21.183 18.2994 20.9979 18.2629 20.8196 18.2984C20.6413 18.334 20.4844 18.4387 20.3831 18.5897C20.2819 18.7407 20.2445 18.9256 20.2793 19.1041C20.314 19.2825 20.418 19.4399 20.5686 19.5419C21.0051 19.8097 21.5077 19.9504 22.0199 19.9482C22.5126 19.9449 22.9965 19.8177 23.4272 19.5783Z" fill="#FAB706"/></svg>